<svg width="58.000000" height="58.000000" viewBox="0 0 58 58" fill="none" xmlns="http://www.w3.org/2000/svg" xmlns:xlink="http://www.w3.org/1999/xlink">
	<defs>
		<clipPath id="clip2_236">
			<rect id="free-delivery 1" rx="0.000000" width="57.000000" height="57.000000" transform="translate(0.500000 0.500000)" fill="white" fill-opacity="0"/>
		</clipPath>
	</defs>
	<rect id="free-delivery 1" rx="0.000000" width="57.000000" height="57.000000" transform="translate(0.500000 0.500000)" fill="#FFFFFF" fill-opacity="0"/>
	<g clip-path="url(#clip2_236)">
		<path id="Vector" d="M53.93 32.5L52.43 26.49C52.84 26.4 53.15 26.04 53.15 25.6L53.15 24.64C53.15 22.53 51.44 20.82 49.34 20.82L42.5 20.82L42.5 18.82C42.5 17.79 41.65 16.95 40.62 16.95L27.9 16.95L35.63 13.85C36.09 13.67 36.32 13.14 36.13 12.67C35.95 12.21 35.42 11.98 34.95 12.17L28.62 14.7C30.55 13.46 32.46 12.1 33.19 11.15C34.6 9.29 34.24 6.63 32.39 5.22C30.54 3.81 27.88 4.16 26.46 6.02C25.43 7.37 24.07 11.18 23.18 13.86C22.3 11.18 20.94 7.37 19.9 6.02C18.49 4.16 15.83 3.81 13.98 5.22C12.12 6.63 11.76 9.29 13.18 11.15C13.9 12.1 15.81 13.46 17.74 14.7L11.41 12.17C10.95 11.98 10.42 12.21 10.23 12.67C10.04 13.14 10.27 13.67 10.74 13.85L18.47 16.95L5.75 16.95C4.71 16.95 3.87 17.79 3.87 18.82L3.87 35.29C3.87 35.79 4.28 36.2 4.78 36.2C5.28 36.2 5.69 35.79 5.69 35.29L5.69 18.82C5.69 18.79 5.71 18.76 5.75 18.76L40.62 18.76C40.65 18.76 40.68 18.79 40.68 18.82L40.68 35.29C40.68 35.79 41.09 36.2 41.59 36.2C42.09 36.2 42.5 35.79 42.5 35.29L42.5 34.26L53.21 34.26C53.21 34.26 53.21 34.26 53.21 34.26C53.21 34.26 53.21 34.26 53.21 34.26C54.53 34.26 55.65 35.13 56.04 36.32L53.21 36.32C52.71 36.32 52.3 36.73 52.3 37.23L52.3 39.17C52.3 40.73 53.58 42.01 55.15 42.01L56.18 42.01L56.18 46.01L53.8 46.01C53.02 43.75 50.88 42.13 48.37 42.13C45.85 42.13 43.71 43.75 42.93 46.01L42.5 46.01L42.5 39.17C42.5 38.66 42.09 38.26 41.59 38.26C41.09 38.26 40.68 38.66 40.68 39.17L40.68 46.01L21.84 46.01C21.06 43.75 18.92 42.13 16.4 42.13C13.89 42.13 11.75 43.75 10.97 46.01L5.75 46.01C5.71 46.01 5.69 45.98 5.69 45.95L5.69 43.95L9.62 43.95C10.12 43.95 10.53 43.54 10.53 43.04C10.53 42.54 10.12 42.13 9.62 42.13L0.9 42.13C0.4 42.13 0 42.54 0 43.04C0 43.54 0.4 43.95 0.9 43.95L3.87 43.95L3.87 45.95C3.87 46.98 4.71 47.82 5.75 47.82L10.65 47.82C10.65 47.84 10.65 47.86 10.65 47.88C10.65 51.05 13.23 53.64 16.4 53.64C19.57 53.64 22.15 51.05 22.15 47.88C22.15 47.86 22.15 47.84 22.15 47.82L42.62 47.82C42.62 47.84 42.62 47.86 42.62 47.88C42.62 51.05 45.2 53.64 48.37 53.64C51.54 53.64 54.12 51.05 54.12 47.88C54.12 47.86 54.12 47.84 54.12 47.82L57.09 47.82C57.59 47.82 57.99 47.42 57.99 46.91L57.99 37.23C58 34.84 56.23 32.85 53.93 32.5ZM19.58 13.71C16 11.48 14.94 10.46 14.62 10.05C13.81 8.99 14.02 7.47 15.08 6.66C15.51 6.33 16.03 6.17 16.54 6.17C17.27 6.17 17.99 6.5 18.46 7.12C19.34 8.27 20.71 12.15 21.62 14.94C21.01 14.58 20.3 14.16 19.58 13.71ZM24.74 14.94C25.65 12.15 27.03 8.27 27.91 7.12C28.71 6.06 30.23 5.86 31.29 6.66C32.35 7.47 32.55 8.99 31.74 10.05C31.43 10.46 30.37 11.48 26.78 13.71C26.06 14.16 25.36 14.58 24.74 14.94ZM42.5 22.64L49.34 22.64C50.44 22.64 51.34 23.53 51.34 24.64L51.34 24.7L42.5 24.7L42.5 22.64ZM42.5 32.45L42.5 26.51L50.57 26.51L52.05 32.45L42.5 32.45ZM16.4 51.82C14.23 51.82 12.47 50.05 12.47 47.88C12.47 45.71 14.23 43.95 16.4 43.95C18.57 43.95 20.34 45.71 20.34 47.88C20.34 50.05 18.57 51.82 16.4 51.82ZM48.37 51.82C46.2 51.82 44.43 50.05 44.43 47.88C44.43 45.71 46.2 43.95 48.37 43.95C50.54 43.95 52.3 45.71 52.3 47.88C52.3 50.05 50.54 51.82 48.37 51.82ZM56.18 40.19L55.15 40.19C54.58 40.19 54.12 39.73 54.12 39.17L54.12 38.14L56.18 38.14L56.18 40.19L56.18 40.19Z" fill="#7AC751" fill-opacity="1.000000" fill-rule="nonzero"/>
		<path id="Vector" d="M16.4 46.01C15.37 46.01 14.53 46.85 14.53 47.88C14.53 48.92 15.37 49.76 16.4 49.76C17.44 49.76 18.28 48.92 18.28 47.88C18.28 46.85 17.44 46.01 16.4 46.01Z" fill="#7AC751" fill-opacity="1.000000" fill-rule="nonzero"/>
		<path id="Vector" d="M48.37 46.01C47.33 46.01 46.49 46.85 46.49 47.88C46.49 48.92 47.33 49.76 48.37 49.76C49.4 49.76 50.25 48.92 50.25 47.88C50.25 46.85 49.4 46.01 48.37 46.01Z" fill="#7AC751" fill-opacity="1.000000" fill-rule="nonzero"/>
		<path id="Vector" d="M37.71 42.13L24.15 42.13C23.65 42.13 23.24 42.54 23.24 43.04C23.24 43.54 23.65 43.95 24.15 43.95L37.71 43.95C38.22 43.95 38.62 43.54 38.62 43.04C38.62 42.54 38.22 42.13 37.71 42.13Z" fill="#7AC751" fill-opacity="1.000000" fill-rule="nonzero"/>
		<path id="Vector" d="M14.47 38.26L2.84 38.26C2.34 38.26 1.93 38.66 1.93 39.17C1.93 39.67 2.34 40.07 2.84 40.07L14.47 40.07C14.97 40.07 15.37 39.67 15.37 39.17C15.37 38.66 14.97 38.26 14.47 38.26Z" fill="#7AC751" fill-opacity="1.000000" fill-rule="nonzero"/>
		<path id="Vector" d="M14.46 24.7L10.59 24.7C10.09 24.7 9.68 25.1 9.68 25.6L9.68 33.35C9.68 33.85 10.09 34.26 10.59 34.26C11.09 34.26 11.5 33.85 11.5 33.35L11.5 30.39L13.5 30.39C14 30.39 14.4 29.98 14.4 29.48C14.4 28.98 14 28.57 13.5 28.57L11.5 28.57L11.5 26.51L14.46 26.51C14.97 26.51 15.37 26.11 15.37 25.6C15.37 25.1 14.97 24.7 14.46 24.7Z" fill="#7AC751" fill-opacity="1.000000" fill-rule="nonzero"/>
		<path id="Vector" d="M21.61 30.81C22.52 30.22 23.12 29.19 23.12 28.03C23.12 26.19 21.63 24.7 19.79 24.7L17.37 24.7C16.87 24.7 16.46 25.1 16.46 25.6L16.46 33.35C16.46 33.85 16.87 34.26 17.37 34.26C17.87 34.26 18.28 33.85 18.28 33.35L18.28 31.36L19.79 31.36L21.46 33.86C21.63 34.12 21.92 34.26 22.21 34.26C22.39 34.26 22.56 34.21 22.72 34.11C23.14 33.83 23.25 33.27 22.97 32.85L21.61 30.81ZM19.79 29.54L18.28 29.54L18.28 26.51L19.79 26.51C20.63 26.51 21.31 27.19 21.31 28.03C21.31 28.86 20.63 29.54 19.79 29.54Z" fill="#7AC751" fill-opacity="1.000000" fill-rule="nonzero"/>
		<path id="Vector" d="M28.99 32.45L26.03 32.45L26.03 30.38C26.05 30.38 26.07 30.39 26.09 30.39L28.03 30.39C28.53 30.39 28.93 29.98 28.93 29.48C28.93 28.98 28.53 28.57 28.03 28.57L26.09 28.57C26.07 28.57 26.05 28.57 26.03 28.57L26.03 26.51L28.99 26.51C29.5 26.51 29.9 26.11 29.9 25.6C29.9 25.1 29.5 24.7 28.99 24.7L25.12 24.7C24.62 24.7 24.21 25.1 24.21 25.6L24.21 33.35C24.21 33.85 24.62 34.26 25.12 34.26L28.99 34.26C29.5 34.26 29.9 33.85 29.9 33.35C29.9 32.85 29.5 32.45 28.99 32.45Z" fill="#7AC751" fill-opacity="1.000000" fill-rule="nonzero"/>
		<path id="Vector" d="M35.78 32.45L32.81 32.45L32.81 30.39L33.84 30.39C34.34 30.39 34.75 29.98 34.75 29.48C34.75 28.98 34.34 28.57 33.84 28.57L32.81 28.57L32.81 26.51L35.78 26.51C36.28 26.51 36.68 26.11 36.68 25.6C36.68 25.1 36.28 24.7 35.78 24.7L31.9 24.7C31.4 24.7 30.99 25.1 30.99 25.6L30.99 33.35C30.99 33.85 31.4 34.26 31.9 34.26L35.78 34.26C36.28 34.26 36.68 33.85 36.68 33.35C36.68 32.85 36.28 32.45 35.78 32.45Z" fill="#7AC751" fill-opacity="1.000000" fill-rule="nonzero"/>
	</g>
</svg>
