<svg width="147.000000" height="38.964844" viewBox="0 0 147 38.9648" fill="none" xmlns="http://www.w3.org/2000/svg" xmlns:xlink="http://www.w3.org/1999/xlink">
	<desc>
			Created with Pixso.
	</desc>
	<defs/>
	<path id="Furniking" d="M92.96 15.41Q93.06 15.45 93.18 15.45L95.36 15.45Q95.54 15.45 95.67 15.37Q95.74 15.34 95.79 15.28Q95.88 15.19 95.93 15.08Q95.96 14.99 95.96 14.88L95.96 13.15Q95.96 13.03 95.92 12.93Q95.88 12.82 95.79 12.74Q95.74 12.68 95.67 12.65Q95.54 12.57 95.36 12.57L93.18 12.57Q93.06 12.57 92.96 12.61Q92.85 12.65 92.77 12.74Q92.69 12.82 92.65 12.91Q92.6 13.02 92.6 13.15L92.6 14.88Q92.6 14.99 92.64 15.09Q92.68 15.19 92.77 15.28Q92.85 15.37 92.96 15.41ZM112.49 15.41Q112.59 15.45 112.71 15.45L114.9 15.45Q115.08 15.45 115.21 15.37Q115.27 15.34 115.33 15.28Q115.42 15.19 115.46 15.08Q115.5 14.99 115.5 14.88L115.5 13.15Q115.5 13.03 115.45 12.93Q115.41 12.82 115.33 12.74Q115.27 12.68 115.21 12.65Q115.08 12.57 114.9 12.57L112.71 12.57Q112.59 12.57 112.49 12.61Q112.39 12.65 112.3 12.74Q112.23 12.82 112.19 12.91Q112.14 13.02 112.14 13.15L112.14 14.88Q112.14 14.99 112.18 15.09Q112.22 15.19 112.3 15.28Q112.39 15.37 112.49 15.41ZM99.4 29.95Q99.51 30 99.64 30L101.58 30Q101.78 30 101.91 29.9Q101.96 29.87 102 29.83Q102.07 29.76 102.11 29.67Q102.16 29.56 102.16 29.42L102.16 24.76L106.74 29.58Q106.96 29.78 107.11 29.89Q107.27 30 107.63 30L109.91 30Q110.04 30 110.14 29.95Q110.21 29.91 110.28 29.85Q110.33 29.81 110.37 29.75Q110.44 29.63 110.44 29.47Q110.44 29.3 110.2 29.06L104.65 23.1L109.6 18.48Q109.74 18.38 109.79 18.26Q109.84 18.14 109.84 18.04Q109.84 17.86 109.75 17.73Q109.73 17.69 109.69 17.66Q109.65 17.62 109.61 17.6Q109.48 17.51 109.31 17.51L107.07 17.51Q106.74 17.51 106.58 17.63Q106.43 17.73 106.19 17.92L102.16 21.74L102.16 13.53Q102.16 13.39 102.1 13.27Q102.06 13.19 102 13.13Q101.95 13.08 101.9 13.04Q101.77 12.96 101.58 12.96L99.64 12.96Q99.52 12.96 99.41 13Q99.31 13.04 99.23 13.13Q99.15 13.2 99.1 13.3Q99.06 13.4 99.06 13.53L99.06 29.42Q99.06 29.54 99.1 29.64Q99.14 29.75 99.23 29.83Q99.31 29.91 99.4 29.95ZM39.21 29.95Q39.32 30 39.44 30L41.55 30Q41.74 30 41.87 29.92Q41.93 29.88 41.99 29.83Q42.07 29.75 42.11 29.64Q42.16 29.54 42.16 29.42L42.16 23.47L49.38 23.47Q49.57 23.47 49.71 23.38Q49.76 23.35 49.81 23.3Q49.89 23.22 49.94 23.12Q49.98 23.01 49.98 22.89L49.98 21.21Q49.98 21.04 49.91 20.91Q49.87 20.84 49.81 20.78Q49.76 20.72 49.69 20.69Q49.56 20.61 49.38 20.61L42.16 20.61L42.16 16.05L49.86 16.05Q50.08 16.05 50.23 15.95Q50.26 15.92 50.29 15.9Q50.34 15.85 50.38 15.79Q50.46 15.66 50.46 15.48L50.46 13.79Q50.46 13.62 50.38 13.48Q50.34 13.42 50.29 13.37Q50.24 13.32 50.19 13.28Q50.05 13.2 49.86 13.2L39.44 13.2Q39.32 13.2 39.22 13.24Q39.12 13.28 39.03 13.37Q38.98 13.42 38.94 13.48Q38.86 13.62 38.86 13.79L38.86 29.42Q38.86 29.54 38.91 29.64Q38.95 29.75 39.03 29.83Q39.11 29.91 39.21 29.95ZM78.07 29.95Q78.17 30 78.3 30L80.41 30Q80.54 30 80.66 29.94Q80.74 29.9 80.81 29.83Q80.9 29.75 80.94 29.64Q80.98 29.54 80.98 29.42L80.98 22.82Q80.98 21.55 81.6 20.78Q81.66 20.71 81.73 20.64Q81.95 20.4 82.21 20.24Q82.84 19.84 83.72 19.84Q84.75 19.84 85.39 20.34Q85.56 20.47 85.7 20.64Q86.39 21.43 86.39 22.82L86.39 29.42Q86.39 29.55 86.43 29.66Q86.47 29.75 86.55 29.83Q86.63 29.91 86.73 29.95Q86.83 30 86.96 30L89.08 30Q89.21 30 89.32 29.94Q89.41 29.9 89.48 29.83Q89.57 29.75 89.61 29.64Q89.65 29.54 89.65 29.42L89.65 22.68Q89.65 21 89.06 19.79Q88.66 18.98 88.04 18.41Q87.74 18.15 87.39 17.94Q87.36 17.91 87.32 17.89Q86.26 17.27 84.85 17.27Q83.41 17.27 82.44 17.79Q81.47 18.31 80.84 19.07L80.84 18.09Q80.84 17.96 80.8 17.86Q80.75 17.76 80.67 17.68Q80.58 17.59 80.47 17.55Q80.38 17.51 80.27 17.51L78.3 17.51Q78.18 17.51 78.08 17.56Q77.98 17.6 77.89 17.68Q77.81 17.76 77.77 17.86Q77.72 17.96 77.72 18.09L77.72 29.42Q77.72 29.54 77.76 29.64Q77.81 29.75 77.89 29.83Q77.97 29.91 78.07 29.95ZM118.91 29.95Q119.02 30 119.15 30L121.26 30Q121.39 30 121.5 29.94Q121.59 29.9 121.66 29.83Q121.75 29.75 121.79 29.64Q121.83 29.54 121.83 29.42L121.83 22.82Q121.83 21.55 122.45 20.78Q122.51 20.71 122.58 20.64Q122.8 20.4 123.06 20.24Q123.69 19.84 124.57 19.84Q125.6 19.84 126.24 20.34Q126.41 20.47 126.55 20.64Q127.24 21.43 127.24 22.82L127.24 29.42Q127.24 29.55 127.28 29.66Q127.32 29.75 127.4 29.83Q127.48 29.91 127.57 29.95Q127.68 30 127.81 30L129.92 30Q130.06 30 130.17 29.94Q130.26 29.9 130.33 29.83Q130.41 29.75 130.46 29.64Q130.5 29.54 130.5 29.42L130.5 22.68Q130.5 21 129.91 19.79Q129.51 18.98 128.88 18.41Q128.59 18.15 128.24 17.94Q128.2 17.91 128.16 17.89Q127.11 17.27 125.7 17.27Q124.26 17.27 123.29 17.79Q122.31 18.31 121.69 19.07L121.69 18.09Q121.69 17.96 121.65 17.86Q121.6 17.76 121.52 17.68Q121.43 17.59 121.32 17.55Q121.23 17.51 121.12 17.51L119.15 17.51Q119.03 17.51 118.93 17.56Q118.82 17.6 118.74 17.68Q118.66 17.76 118.62 17.86Q118.57 17.96 118.57 18.09L118.57 29.42Q118.57 29.54 118.61 29.64Q118.65 29.75 118.74 29.83Q118.82 29.91 118.91 29.95ZM136.31 34.82Q137.44 35.27 139.19 35.27Q141.23 35.27 142.53 34.59Q143.37 34.16 143.94 33.49Q144.26 33.11 144.49 32.66Q145.14 31.41 145.14 29.68L145.12 18.11Q145.12 17.93 145.04 17.8Q145 17.74 144.95 17.68Q144.86 17.6 144.76 17.56Q144.66 17.51 144.54 17.51L142.6 17.51Q142.48 17.51 142.38 17.56Q142.27 17.6 142.19 17.68Q142.13 17.74 142.1 17.8Q142.02 17.93 142.02 18.11L142.02 19.07Q141.42 18.31 140.48 17.79Q139.55 17.27 138.18 17.27Q136.91 17.27 135.96 17.71Q135.3 18.01 134.79 18.48Q134.57 18.69 134.38 18.92Q133.76 19.7 133.44 20.73Q133.12 21.76 133.07 22.96Q133.04 23.61 133.07 24.26Q133.12 25.51 133.44 26.54Q133.76 27.57 134.38 28.33Q134.53 28.5 134.69 28.66Q135.23 29.18 135.96 29.5Q136.91 29.92 138.18 29.92Q139.5 29.92 140.39 29.49Q141.3 29.06 141.88 28.36L141.88 30Q141.88 31.1 141.55 31.72Q141.36 32.08 141.08 32.32Q140.87 32.5 140.6 32.61Q139.98 32.88 139.07 32.88Q138.2 32.88 137.71 32.63Q137.22 32.37 136.98 32.01Q136.74 31.65 136.6 31.34Q136.5 31.05 136.35 30.94Q136.21 30.83 135.97 30.83L133.89 30.83Q133.79 30.83 133.71 30.86Q133.57 30.9 133.46 31.01Q133.36 31.12 133.32 31.25Q133.3 31.34 133.31 31.44Q133.33 31.79 133.6 32.43Q133.89 33.07 134.53 33.71Q135.18 34.36 136.31 34.82ZM54.94 29.6Q56 30.24 57.44 30.24Q58.89 30.24 59.84 29.75Q60.38 29.48 60.83 29.1Q61.17 28.8 61.45 28.44L61.45 29.42Q61.45 29.56 61.51 29.68Q61.54 29.76 61.6 29.83Q61.65 29.88 61.7 29.91Q61.83 30 62.03 30L63.97 30Q64.11 30 64.22 29.94Q64.3 29.9 64.38 29.83Q64.46 29.75 64.5 29.64Q64.55 29.54 64.55 29.42L64.55 18.09Q64.55 17.96 64.5 17.86Q64.46 17.76 64.38 17.68Q64.3 17.6 64.2 17.56Q64.1 17.51 63.97 17.51L61.86 17.51Q61.74 17.51 61.64 17.56Q61.54 17.6 61.45 17.68Q61.37 17.76 61.33 17.86Q61.28 17.96 61.28 18.09L61.28 24.69Q61.28 25.98 60.65 26.76Q60.6 26.82 60.55 26.88Q60.35 27.1 60.1 27.26Q59.47 27.67 58.57 27.67Q57.43 27.67 56.79 27.1Q55.96 26.37 55.96 24.69L55.96 18.09Q55.96 17.95 55.9 17.83Q55.86 17.75 55.8 17.68Q55.75 17.64 55.7 17.6Q55.57 17.51 55.38 17.51L53.27 17.51Q53.15 17.51 53.04 17.56Q52.94 17.6 52.86 17.68Q52.78 17.76 52.74 17.84Q52.69 17.95 52.69 18.09L52.69 24.83Q52.69 26.49 53.27 27.7Q53.67 28.56 54.32 29.14Q54.59 29.38 54.91 29.58Q54.92 29.59 54.94 29.6ZM68.06 29.95Q68.17 30 68.29 30L70.38 30Q70.57 30 70.7 29.91Q70.76 29.88 70.81 29.83Q70.89 29.75 70.93 29.64Q70.98 29.54 70.98 29.42L70.98 22.82Q70.98 21.8 71.48 21.18Q71.54 21.11 71.61 21.04Q71.68 20.96 71.77 20.9Q72.38 20.4 73.4 20.4L75.28 20.4Q75.47 20.4 75.6 20.31Q75.65 20.28 75.69 20.23Q75.76 20.15 75.8 20.07Q75.85 19.95 75.85 19.82L75.85 18.09Q75.85 17.95 75.8 17.83Q75.76 17.75 75.69 17.68Q75.65 17.64 75.6 17.6Q75.47 17.51 75.28 17.51L74.29 17.51Q73.14 17.51 72.26 17.92Q71.76 18.16 71.37 18.5Q71.07 18.77 70.84 19.1L70.84 18.11Q70.84 17.95 70.77 17.83Q70.72 17.75 70.65 17.68Q70.55 17.59 70.43 17.55Q70.34 17.51 70.23 17.51L68.29 17.51Q68.17 17.51 68.07 17.56Q67.97 17.6 67.88 17.68Q67.83 17.74 67.79 17.8Q67.71 17.93 67.71 18.11L67.71 29.42Q67.71 29.54 67.76 29.64Q67.8 29.75 67.88 29.83Q67.96 29.91 68.06 29.95ZM93.04 29.95Q93.15 30 93.28 30L95.27 30Q95.47 30 95.6 29.9Q95.65 29.87 95.69 29.83Q95.75 29.76 95.79 29.67Q95.84 29.56 95.84 29.42L95.84 18.09Q95.84 17.95 95.79 17.83Q95.75 17.75 95.69 17.68Q95.64 17.64 95.59 17.6Q95.46 17.51 95.27 17.51L93.28 17.51Q93.16 17.51 93.05 17.56Q92.95 17.6 92.87 17.68Q92.79 17.76 92.74 17.86Q92.7 17.96 92.7 18.09L92.7 29.42Q92.7 29.54 92.74 29.64Q92.78 29.75 92.87 29.83Q92.95 29.91 93.04 29.95ZM112.58 29.95Q112.69 30 112.81 30L114.81 30Q115 30 115.14 29.9Q115.18 29.87 115.22 29.83Q115.29 29.76 115.33 29.67Q115.38 29.56 115.38 29.42L115.38 18.09Q115.38 17.95 115.32 17.83Q115.29 17.75 115.22 17.68Q115.18 17.64 115.12 17.6Q114.99 17.51 114.81 17.51L112.81 17.51Q112.69 17.51 112.59 17.56Q112.49 17.6 112.4 17.68Q112.32 17.76 112.28 17.86Q112.23 17.96 112.23 18.09L112.23 29.42Q112.23 29.54 112.28 29.64Q112.32 29.75 112.4 29.83Q112.48 29.91 112.58 29.95ZM140.65 26.95Q140.05 27.38 139.07 27.38Q138.08 27.38 137.48 26.95Q137.26 26.79 137.09 26.59Q136.79 26.24 136.63 25.78Q136.38 25.05 136.33 24.21Q136.28 23.61 136.33 23.03Q136.38 22.17 136.63 21.45Q136.78 21.04 137.03 20.72Q137.23 20.48 137.48 20.29Q138.08 19.84 139.07 19.84Q140.05 19.84 140.65 20.29Q140.97 20.52 141.2 20.83Q141.4 21.1 141.54 21.42Q141.65 21.69 141.73 21.97Q141.85 22.39 141.88 22.84Q141.9 23.13 141.9 23.61Q141.9 24.09 141.88 24.41Q141.87 24.46 141.87 24.52Q141.8 25.18 141.54 25.82Q141.39 26.19 141.15 26.48Q140.93 26.74 140.65 26.95Z" fill="#555555" fill-opacity="1.000000" fill-rule="evenodd"/>
	<path id="Vector" d="M5.96 6.94C6.61 6.94 7.14 6.42 7.14 5.77C7.14 5.12 6.61 4.6 5.96 4.6C5.32 4.6 4.79 5.12 4.79 5.77C4.79 6.42 5.32 6.94 5.96 6.94Z" fill="#85B839" fill-opacity="1.000000" fill-rule="nonzero"/>
	<path id="Vector" d="M9.59 24.78L9.59 27.03C11.42 25.7 13.59 24.98 15.89 24.98C18.18 24.98 20.36 25.7 22.19 27.03L22.19 24.78C22.19 22.89 23.13 21.22 24.57 20.21C24.45 17.84 22.49 15.95 20.09 15.95L11.69 15.95C9.29 15.95 7.33 17.84 7.2 20.21C8.64 21.22 9.59 22.89 9.59 24.78Z" fill="#85B839" fill-opacity="1.000000" fill-rule="nonzero"/>
	<path id="Vector" d="M8.91 12.53L22.82 12.53L22.82 14.42L8.91 14.42L8.91 12.53Z" fill="#85B839" fill-opacity="1.000000" fill-rule="evenodd"/>
	<path id="Vector" d="M22.19 29.02C20.47 27.41 18.25 26.52 15.89 26.52C13.53 26.52 11.31 27.41 9.59 29.02L9.59 31.08L22.19 31.08L22.19 29.02Z" fill="#85B839" fill-opacity="1.000000" fill-rule="nonzero"/>
	<path id="Vector" d="M25.55 6.94C26.19 6.94 26.72 6.42 26.72 5.77C26.72 5.12 26.19 4.6 25.55 4.6C24.9 4.6 24.37 5.12 24.37 5.77C24.37 6.42 24.9 6.94 25.55 6.94Z" fill="#85B839" fill-opacity="1.000000" fill-rule="nonzero"/>
	<path id="Vector" d="M15.91 3.77C16.95 3.77 17.8 2.93 17.8 1.88C17.8 0.84 16.95 0 15.91 0C14.86 0 14.02 0.84 14.02 1.88C14.02 2.93 14.86 3.77 15.91 3.77Z" fill="#85B839" fill-opacity="1.000000" fill-rule="nonzero"/>
	<path id="Vector" d="M27.76 20.75C25.54 20.75 23.73 22.56 23.73 24.78L23.73 32.62L8.05 32.62L8.05 24.78C8.05 22.56 6.24 20.75 4.02 20.75C1.8 20.75 0 22.56 0 24.78C0 27 1.8 28.8 4.02 28.8L4.79 28.8L4.79 35.87L26.98 35.87L26.98 28.8L27.76 28.8C29.98 28.8 31.78 27 31.78 24.78C31.78 22.56 29.98 20.75 27.76 20.75ZM4.02 26.03C3.33 26.03 2.77 25.47 2.77 24.78C2.77 24.09 3.33 23.53 4.02 23.53C4.71 23.53 5.27 24.09 5.27 24.78C5.27 25.47 4.71 26.03 4.02 26.03ZM27.76 26.03C27.06 26.03 26.5 25.47 26.5 24.78C26.5 24.09 27.06 23.53 27.76 23.53C28.45 23.53 29.01 24.09 29.01 24.78C29.01 25.47 28.45 26.03 27.76 26.03Z" fill="#85B839" fill-opacity="1.000000" fill-rule="nonzero"/>
	<path id="Vector" d="M8.69 10.98L23.03 10.98C23.81 10.14 24.38 9.14 24.69 8.06C23.77 8.54 22.73 8.81 21.66 8.81C19.13 8.81 16.94 7.37 15.86 5.27C14.77 7.37 12.58 8.81 10.06 8.81C8.99 8.81 7.95 8.55 7.03 8.07C7.35 9.15 7.91 10.14 8.69 10.98Z" fill="#85B839" fill-opacity="1.000000" fill-rule="nonzero"/>
	<path id="Vector" d="M8.05 37.42L9.59 37.42L9.59 38.96L8.05 38.96L8.05 37.42Z" fill="#85B839" fill-opacity="1.000000" fill-rule="evenodd"/>
	<path id="Vector" d="M22.19 37.42L23.73 37.42L23.73 38.96L22.19 38.96L22.19 37.42Z" fill="#85B839" fill-opacity="1.000000" fill-rule="evenodd"/>
</svg>
