<svg width="58.500580" height="58.498535" viewBox="0 0 58.5006 58.4985" fill="none" xmlns="http://www.w3.org/2000/svg" xmlns:xlink="http://www.w3.org/1999/xlink">
	<desc>
			Created with Pixso.
	</desc>
	<defs/>
	<path id="Shape" d="M6.67 17.97C5.7 18.46 5.08 19.45 5.08 20.54L5.08 27.31C5.08 28.38 5.94 29.24 7.01 29.24L7.01 55.34C7.01 56.95 8.31 58.24 9.91 58.24L48.58 58.24C50.18 58.24 51.48 56.95 51.48 55.34L51.48 29.24C52.55 29.24 53.41 28.38 53.41 27.31L53.41 20.54C53.41 19.45 52.79 18.46 51.82 17.97C55.84 15.39 58.04 10.58 58.16 10.3C58.3 10 58.27 9.66 58.09 9.38C57.91 9.11 57.61 8.94 57.28 8.94L53.41 8.94L53.41 5.08C53.41 4.7 53.2 4.36 52.86 4.2C52.52 4.04 52.11 4.09 51.83 4.33L48.6 7.03C47.13 4.35 44.9 2.15 42.2 0.71C41.58 0.37 40.89 0.21 40.18 0.25C33.71 0.66 30.61 5.89 29.25 9.43C27.88 5.89 24.78 0.67 18.31 0.27C17.61 0.23 16.91 0.39 16.29 0.73C13.59 2.16 11.37 4.35 9.9 7.03L6.66 4.33C6.38 4.09 5.97 4.04 5.63 4.2C5.3 4.36 5.08 4.7 5.08 5.08L5.08 8.94L1.21 8.94C0.88 8.94 0.58 9.11 0.4 9.38C0.22 9.66 0.2 10 0.33 10.3C0.45 10.58 2.65 15.39 6.67 17.97ZM22.48 19.58L22.48 27.31L7.01 27.31L7.01 20.54C7.01 20.01 7.44 19.58 7.98 19.58L22.48 19.58ZM24.34 13.89C22.1 11.95 20.53 9.35 19.88 6.46C22.93 7.79 24.53 11.44 25.11 13.06C24.82 13.3 24.57 13.58 24.34 13.89ZM25.38 16.68C25.38 15.08 26.68 13.78 28.28 13.78L30.21 13.78C31.81 13.78 33.11 15.08 33.11 16.68L33.11 17.64L25.38 17.64L25.38 16.68ZM34.08 27.31L24.41 27.31L24.41 19.58L34.08 19.58L34.08 27.31ZM33.38 13.06C33.96 11.44 35.56 7.79 38.61 6.46C37.96 9.35 36.39 11.95 34.15 13.89C33.93 13.58 33.67 13.3 33.38 13.06ZM8.95 55.34L8.95 29.24L24.41 29.24L24.41 56.31L9.91 56.31C9.38 56.31 8.95 55.88 8.95 55.34ZM26.35 56.31L26.35 29.24L32.15 29.24L32.15 56.31L26.35 56.31ZM49.55 55.34C49.55 55.88 49.11 56.31 48.58 56.31L34.08 56.31L34.08 29.24L49.55 29.24L49.55 55.34ZM50.51 19.58C51.05 19.58 51.48 20.01 51.48 20.54L51.48 27.31L36.01 27.31L36.01 19.58L50.51 19.58ZM52.45 10.88L55.68 10.88C54.33 13.19 51.16 17.64 46.65 17.64L44.48 17.64C46.15 16.28 47.59 14.67 48.76 12.86C49.52 11.69 49.74 10.25 49.36 8.91L51.48 7.14L51.48 9.91C51.48 10.44 51.91 10.88 52.45 10.88ZM40.3 2.18C40.65 2.16 40.98 2.24 41.28 2.41C42.7 3.18 46.16 5.39 47.46 9.29C47.75 10.13 47.63 11.06 47.15 11.8C46.07 13.45 43.81 16.38 40.78 17.64L35.05 17.64L35.05 16.68C35.05 16.36 35.01 16.03 34.95 15.72C38.91 12.92 40.29 8.04 40.7 5.99C40.8 5.5 40.64 4.99 40.27 4.65C39.89 4.3 39.36 4.17 38.87 4.31C34.66 5.5 32.54 9.78 31.67 12.09C31.28 11.97 30.86 11.89 30.44 11.87C31.16 9.19 33.59 2.6 40.3 2.18ZM11.03 9.3C12.33 5.41 15.79 3.2 17.21 2.43C17.51 2.27 17.85 2.18 18.19 2.2C24.9 2.62 27.33 9.19 28.05 11.86C27.63 11.89 27.22 11.96 26.82 12.09C25.95 9.77 23.83 5.49 19.62 4.31C19.13 4.17 18.6 4.3 18.23 4.65C17.86 4.99 17.69 5.5 17.8 5.99C18.2 8.04 19.58 12.92 23.54 15.72C23.48 16.03 23.45 16.36 23.45 16.68L23.45 17.64L17.71 17.64C14.68 16.38 12.42 13.46 11.34 11.81C10.86 11.06 10.75 10.14 11.03 9.3ZM6.05 10.88C6.58 10.88 7.01 10.44 7.01 9.91L7.01 7.14L9.14 8.91C8.75 10.25 8.97 11.7 9.73 12.87C10.9 14.67 12.34 16.28 14.01 17.64L11.85 17.64C7.34 17.64 4.16 13.19 2.82 10.88L6.05 10.88Z" fill="#7AC751" fill-opacity="1.000000" fill-rule="nonzero"/>
	<path id="Shape" d="M4.95 19.69Q4.83 20.1 4.83 20.54L4.83 20.54L4.83 27.31Q4.83 27.55 4.88 27.79Q4.92 27.98 5 28.16Q5.08 28.35 5.19 28.51Q5.31 28.69 5.47 28.85Q5.63 29.01 5.81 29.13Q5.98 29.24 6.16 29.32Q6.35 29.4 6.54 29.44Q6.65 29.47 6.76 29.48L6.76 55.34Q6.76 55.7 6.84 56.03Q6.9 56.31 7.01 56.57Q7.12 56.84 7.28 57.07Q7.45 57.34 7.68 57.57Q7.91 57.8 8.18 57.98Q8.42 58.13 8.69 58.25Q8.95 58.36 9.22 58.42Q9.56 58.49 9.91 58.49L48.58 58.49Q48.93 58.49 49.27 58.42Q49.54 58.36 49.8 58.25Q50.07 58.13 50.31 57.98Q50.58 57.8 50.81 57.57Q51.04 57.34 51.21 57.07Q51.37 56.84 51.48 56.57Q51.59 56.31 51.65 56.03Q51.73 55.7 51.73 55.34L51.73 29.48Q51.84 29.47 51.95 29.44Q52.14 29.4 52.33 29.32Q52.51 29.24 52.68 29.13Q52.86 29.01 53.02 28.85Q53.18 28.69 53.3 28.51Q53.41 28.35 53.49 28.16Q53.57 27.98 53.61 27.78Q53.66 27.55 53.66 27.31L53.66 20.54Q53.66 20.1 53.54 19.68Q53.42 19.28 53.19 18.9Q52.96 18.52 52.64 18.24Q52.48 18.08 52.29 17.96Q53.52 17.11 54.67 15.9Q55.72 14.78 56.66 13.41Q57.34 12.42 57.91 11.37Q58.22 10.8 58.39 10.4Q58.45 10.26 58.48 10.12Q58.5 9.97 58.49 9.81Q58.48 9.66 58.43 9.52Q58.38 9.38 58.3 9.25Q58.21 9.12 58.1 9.02Q57.99 8.91 57.86 8.84Q57.72 8.77 57.58 8.73Q57.43 8.69 57.28 8.69L53.66 8.69L53.66 5.08Q53.66 4.9 53.61 4.74Q53.57 4.57 53.47 4.42Q53.38 4.27 53.25 4.16Q53.12 4.05 52.96 3.97Q52.8 3.9 52.63 3.87Q52.46 3.85 52.29 3.87Q52.11 3.89 51.96 3.96Q51.8 4.03 51.67 4.14L48.67 6.64Q48.17 5.77 47.56 4.96Q46.87 4.04 46.04 3.23Q45.21 2.41 44.28 1.72Q43.35 1.04 42.32 0.49Q42.12 0.38 41.91 0.3Q41.6 0.17 41.28 0.1Q41.01 0.03 40.73 0.01Q40.45 -0.01 40.17 0Q38.19 0.12 36.46 0.84Q36.14 0.98 35.82 1.13Q34.07 2 32.62 3.49Q31.39 4.75 30.4 6.43Q29.76 7.53 29.24 8.76Q28.73 7.53 28.08 6.43Q27.1 4.76 25.87 3.5Q24.41 2.01 22.66 1.15Q22.34 0.99 22.01 0.85Q20.29 0.14 18.32 0.02Q18.02 0 17.72 0.03Q17.47 0.05 17.21 0.11Q16.94 0.17 16.68 0.27Q16.42 0.37 16.17 0.51Q15.18 1.03 14.29 1.68Q13.32 2.38 12.46 3.23Q11.63 4.05 10.94 4.97Q10.33 5.77 9.83 6.64L6.82 4.14Q6.69 4.03 6.53 3.96Q6.38 3.89 6.2 3.87Q6.03 3.85 5.86 3.87Q5.69 3.9 5.53 3.97Q5.37 4.05 5.24 4.16Q5.11 4.27 5.02 4.42Q4.92 4.57 4.88 4.74Q4.83 4.9 4.83 5.08L4.83 8.69L1.21 8.69Q1.06 8.69 0.91 8.73Q0.77 8.77 0.63 8.84Q0.5 8.91 0.39 9.02Q0.28 9.12 0.19 9.25Q0.11 9.38 0.06 9.52Q0.01 9.66 0 9.81Q-0.01 9.97 0.01 10.12Q0.04 10.26 0.1 10.4Q0.27 10.8 0.59 11.37Q1.15 12.42 1.83 13.41Q2.77 14.78 3.82 15.9Q4.97 17.11 6.2 17.96Q6.01 18.08 5.85 18.24Q5.53 18.52 5.3 18.9Q5.06 19.28 4.95 19.69ZM6.43 17.81C6.51 17.87 6.59 17.92 6.67 17.97C6.59 18.01 6.5 18.06 6.42 18.11C5.59 18.63 5.08 19.55 5.08 20.54L5.08 27.31C5.08 28.38 5.94 29.24 7.01 29.24L7.01 55.34C7.01 56.95 8.31 58.24 9.91 58.24L48.58 58.24C50.18 58.24 51.48 56.95 51.48 55.34L51.48 29.24C52.55 29.24 53.41 28.38 53.41 27.31L53.41 20.54C53.41 19.55 52.9 18.63 52.07 18.11C51.99 18.06 51.91 18.01 51.82 17.97C51.9 17.92 51.98 17.87 52.06 17.81C55.93 15.2 58.04 10.57 58.16 10.3C58.3 10 58.27 9.66 58.09 9.38C57.91 9.11 57.61 8.94 57.28 8.94L53.41 8.94L53.41 5.08C53.41 4.7 53.2 4.36 52.86 4.2C52.52 4.04 52.11 4.09 51.83 4.33L48.79 6.87L48.6 7.03C48.56 6.95 48.52 6.88 48.47 6.81C47 4.22 44.83 2.11 42.2 0.71C41.58 0.37 40.89 0.21 40.18 0.25C33.91 0.64 30.81 5.56 29.38 9.09C29.33 9.2 29.29 9.31 29.25 9.43C29.2 9.32 29.16 9.2 29.11 9.09C27.68 5.57 24.57 0.66 18.31 0.27C17.61 0.23 16.91 0.39 16.29 0.73C13.67 2.12 11.5 4.23 10.02 6.81C9.98 6.88 9.94 6.95 9.9 7.03L9.7 6.87L6.66 4.33C6.38 4.09 5.97 4.04 5.63 4.2C5.3 4.36 5.08 4.7 5.08 5.08L5.08 8.94L1.21 8.94C0.88 8.94 0.58 9.11 0.4 9.38C0.22 9.66 0.2 10 0.33 10.3C0.45 10.57 2.56 15.2 6.43 17.81ZM40.3 2.18C40.65 2.16 40.98 2.24 41.28 2.41C42.7 3.18 46.16 5.39 47.46 9.29C47.75 10.13 47.63 11.06 47.15 11.8C46.07 13.45 43.81 16.38 40.78 17.64L35.05 17.64L35.05 16.68C35.05 16.36 35.01 16.03 34.95 15.72C38.91 12.92 40.29 8.04 40.7 5.99C40.8 5.5 40.64 4.99 40.27 4.65C39.89 4.3 39.36 4.17 38.87 4.31C34.66 5.5 32.54 9.78 31.67 12.09C31.36 11.99 31.03 11.92 30.7 11.89C30.61 11.88 30.53 11.87 30.44 11.87C30.47 11.79 30.49 11.71 30.51 11.62C31.31 8.81 33.79 2.59 40.3 2.18ZM30.77 11.64Q30.94 11.66 31.11 11.7Q31.32 11.73 31.52 11.79Q31.89 10.84 32.35 9.95Q33.01 8.67 33.82 7.63Q34.8 6.36 35.94 5.5Q37.09 4.64 38.37 4.2Q38.59 4.13 38.8 4.07Q39.02 4.01 39.23 4.01Q39.45 4 39.67 4.05Q39.9 4.11 40.1 4.22Q40.28 4.32 40.43 4.46Q40.6 4.61 40.71 4.79Q40.83 4.97 40.9 5.18Q40.97 5.4 40.98 5.61Q40.99 5.83 40.95 6.04Q40.74 7.04 40.42 8.05Q39.99 9.44 39.38 10.68Q38.63 12.22 37.66 13.46Q36.57 14.85 35.22 15.83Q35.25 16 35.27 16.16Q35.3 16.42 35.3 16.68L35.3 17.39L40.73 17.39Q42.67 16.57 44.52 14.69Q45.83 13.36 46.94 11.67Q47.1 11.41 47.2 11.13Q47.31 10.85 47.34 10.55Q47.38 10.26 47.35 9.97Q47.32 9.67 47.22 9.37Q47.21 9.34 47.2 9.3Q46.37 6.86 44.24 4.86Q43.45 4.11 42.52 3.47Q41.85 3 41.16 2.63L41.16 2.63Q40.95 2.51 40.72 2.46Q40.53 2.42 40.32 2.43Q38.71 2.53 37.3 3.12Q36.71 3.37 36.16 3.71Q34.57 4.67 33.32 6.33Q32.32 7.66 31.57 9.38Q31.51 9.53 31.45 9.67Q31.05 10.63 30.77 11.64ZM11.03 9.3C12.33 5.41 15.79 3.2 17.21 2.43C17.51 2.27 17.85 2.18 18.19 2.2C24.7 2.61 27.18 8.81 27.98 11.62C28 11.7 28.02 11.79 28.05 11.86C27.96 11.87 27.88 11.88 27.79 11.88C27.46 11.92 27.14 11.99 26.82 12.09C25.95 9.77 23.83 5.49 19.62 4.31C19.13 4.17 18.6 4.3 18.23 4.65C17.86 4.99 17.69 5.5 17.8 5.99C18.2 8.04 19.58 12.92 23.54 15.72C23.48 16.03 23.45 16.36 23.45 16.68L23.45 17.64L17.71 17.64C14.68 16.38 12.42 13.46 11.34 11.81C10.86 11.06 10.75 10.14 11.03 9.3ZM17.76 17.39L23.2 17.39L23.2 16.68Q23.2 16.42 23.22 16.17Q23.24 16 23.27 15.83Q21.92 14.85 20.83 13.46Q19.86 12.22 19.11 10.68Q18.5 9.44 18.07 8.05Q17.75 7.03 17.55 6.04Q17.51 5.82 17.52 5.61Q17.53 5.39 17.6 5.18Q17.67 4.97 17.78 4.78Q17.9 4.61 18.06 4.46Q18.22 4.31 18.41 4.21Q18.6 4.1 18.82 4.05Q19.04 4 19.26 4Q19.48 4.01 19.69 4.07Q19.92 4.13 20.14 4.21Q21.42 4.65 22.55 5.5Q23.7 6.36 24.67 7.62Q25.48 8.67 26.14 9.95Q26.6 10.83 26.97 11.79Q27.17 11.73 27.38 11.69Q27.55 11.66 27.72 11.64Q27.39 10.48 26.92 9.39Q26.17 7.67 25.16 6.34Q23.91 4.69 22.33 3.72Q21.78 3.39 21.2 3.15Q19.79 2.55 18.17 2.45Q17.95 2.44 17.74 2.49Q17.53 2.54 17.33 2.65L17.33 2.65Q16.64 3.02 15.97 3.49Q15.04 4.13 14.24 4.88Q12.12 6.88 11.29 9.31Q11.28 9.35 11.27 9.38Q11.17 9.67 11.14 9.96Q11.11 10.26 11.15 10.56Q11.19 10.86 11.29 11.14Q11.39 11.42 11.55 11.67Q12.66 13.36 13.97 14.7Q15.82 16.57 17.76 17.39ZM19.95 6.76C20.62 9.45 22.09 11.88 24.16 13.72C24.22 13.78 24.28 13.83 24.34 13.89C24.39 13.82 24.44 13.75 24.5 13.69C24.68 13.46 24.88 13.25 25.11 13.06C24.55 11.49 23.03 8.02 20.17 6.59C20.07 6.54 19.98 6.5 19.88 6.46C19.9 6.56 19.93 6.66 19.95 6.76ZM20.25 6.91Q20.46 7.71 20.77 8.47Q21.17 9.47 21.73 10.4Q22.29 11.34 22.99 12.16Q23.6 12.89 24.31 13.52Q24.41 13.4 24.52 13.28Q24.66 13.13 24.81 12.98Q24.56 12.3 24.25 11.64Q23.78 10.63 23.21 9.79Q21.9 7.81 20.25 6.91ZM38.32 6.59C35.46 8.02 33.95 11.49 33.38 13.06C33.61 13.25 33.81 13.46 33.99 13.69C34.05 13.75 34.1 13.82 34.15 13.89C34.21 13.83 34.27 13.78 34.34 13.72C36.4 11.88 37.87 9.45 38.54 6.76C38.56 6.66 38.59 6.56 38.61 6.46C38.51 6.5 38.42 6.54 38.32 6.59ZM38.24 6.91Q36.6 7.81 35.28 9.79Q34.72 10.63 34.24 11.64Q33.93 12.3 33.68 12.98Q33.83 13.13 33.97 13.28Q34.08 13.4 34.18 13.52Q34.9 12.89 35.51 12.16Q36.2 11.34 36.76 10.4Q37.32 9.47 37.73 8.47Q38.03 7.71 38.24 6.91ZM7.23 10.17Q7.26 10.04 7.26 9.91L7.26 7.67L8.86 9Q8.74 9.45 8.71 9.91Q8.67 10.44 8.75 10.99Q8.84 11.53 9.03 12.04Q9.22 12.54 9.52 13Q10.41 14.37 11.48 15.58Q12.34 16.54 13.32 17.39L11.85 17.39Q11.65 17.39 11.45 17.38Q10.13 17.3 8.83 16.69Q7.55 16.07 6.32 14.94Q5.3 14.01 4.36 12.76Q3.78 11.98 3.26 11.13L6.05 11.13Q6.18 11.13 6.31 11.1Q6.42 11.07 6.52 11.03Q6.62 10.99 6.72 10.93Q6.82 10.86 6.91 10.77Q6.99 10.68 7.06 10.58Q7.12 10.49 7.17 10.38Q7.21 10.28 7.23 10.17ZM2.96 11.13C4.39 13.5 7.5 17.64 11.85 17.64L14.01 17.64C13.91 17.56 13.81 17.48 13.71 17.39C12.17 16.09 10.83 14.56 9.73 12.87C8.97 11.7 8.75 10.25 9.14 8.91L7.26 7.35L7.01 7.14L7.01 9.91C7.01 10.44 6.58 10.88 6.05 10.88L2.82 10.88C2.86 10.96 2.91 11.04 2.96 11.13ZM55.39 10.88L52.45 10.88C51.91 10.88 51.48 10.44 51.48 9.91L51.48 7.14L51.23 7.35L49.36 8.91C49.74 10.25 49.52 11.69 48.76 12.86C47.66 14.56 46.32 16.09 44.78 17.39C44.68 17.48 44.58 17.56 44.48 17.64L46.65 17.64C51 17.64 54.11 13.5 55.53 11.13C55.58 11.04 55.63 10.96 55.68 10.88L55.39 10.88ZM55.24 11.13Q54.72 11.98 54.13 12.76Q53.2 14.01 52.18 14.94Q50.95 16.07 49.66 16.69Q48.38 17.3 47.06 17.38Q46.85 17.39 46.65 17.39L45.16 17.39Q46.14 16.54 47 15.58Q48.08 14.37 48.97 12.99Q49.27 12.54 49.46 12.04Q49.65 11.54 49.74 10.99Q49.82 10.44 49.78 9.91Q49.75 9.45 49.64 9L51.23 7.68L51.23 9.91Q51.23 10.04 51.26 10.17Q51.28 10.28 51.32 10.38Q51.37 10.49 51.43 10.58Q51.5 10.68 51.59 10.77Q51.67 10.86 51.78 10.93Q51.87 10.99 51.97 11.03Q52.08 11.07 52.18 11.1Q52.31 11.13 52.45 11.13L55.24 11.13ZM25.38 16.68C25.38 15.08 26.68 13.78 28.28 13.78L30.21 13.78C31.81 13.78 33.11 15.08 33.11 16.68L33.11 17.64L25.38 17.64L25.38 16.68ZM25.63 17.39L32.86 17.39L32.86 16.68Q32.86 16.38 32.8 16.09Q32.75 15.86 32.65 15.65Q32.56 15.42 32.43 15.23Q32.28 15 32.09 14.8Q31.89 14.61 31.66 14.46Q31.47 14.33 31.24 14.24Q31.03 14.14 30.8 14.09Q30.51 14.03 30.21 14.03L28.28 14.03Q27.98 14.03 27.69 14.09Q27.46 14.14 27.25 14.24Q27.03 14.33 26.83 14.46Q26.6 14.61 26.4 14.8Q26.21 15 26.06 15.23Q25.93 15.42 25.84 15.65Q25.74 15.86 25.69 16.09Q25.63 16.38 25.63 16.68L25.63 17.39ZM22.48 27.31L22.48 19.58L7.98 19.58C7.44 19.58 7.01 20.01 7.01 20.54L7.01 27.31L22.48 27.31ZM7.26 27.06L7.26 20.54Q7.26 20.39 7.31 20.27Q7.37 20.14 7.47 20.04Q7.58 19.93 7.7 19.88Q7.83 19.83 7.98 19.83L22.23 19.83L22.23 27.06L7.26 27.06ZM24.41 27.06L24.41 19.58L34.08 19.58L34.08 27.31L24.41 27.31L24.41 27.06ZM24.66 27.06L24.66 19.83L33.83 19.83L33.83 27.06L24.66 27.06ZM51.18 20.27Q51.23 20.39 51.23 20.54L51.23 27.06L36.26 27.06L36.26 19.83L50.51 19.83Q50.66 19.83 50.79 19.88Q50.91 19.93 51.02 20.04Q51.12 20.14 51.18 20.27ZM36.26 19.58L50.51 19.58C51.05 19.58 51.48 20.01 51.48 20.54L51.48 27.31L36.01 27.31L36.01 19.58L36.26 19.58ZM9.2 29.24L8.95 29.24L8.95 55.34C8.95 55.88 9.38 56.31 9.91 56.31L24.41 56.31L24.41 29.24L9.2 29.24ZM9.2 29.49L9.2 55.34Q9.2 55.49 9.25 55.62Q9.3 55.75 9.41 55.85Q9.51 55.96 9.64 56.01Q9.76 56.06 9.91 56.06L24.16 56.06L24.16 29.49L9.2 29.49ZM26.6 29.24L26.35 29.24L26.35 56.31L32.15 56.31L32.15 29.24L26.6 29.24ZM26.6 29.49L26.6 56.06L31.9 56.06L31.9 29.49L26.6 29.49ZM48.85 56.01Q48.73 56.06 48.58 56.06L34.33 56.06L34.33 29.49L49.3 29.49L49.3 55.34Q49.3 55.49 49.24 55.62Q49.19 55.75 49.09 55.85Q48.98 55.96 48.85 56.01ZM49.3 29.24L49.55 29.24L49.55 55.34C49.55 55.88 49.11 56.31 48.58 56.31L34.08 56.31L34.08 29.24L49.3 29.24Z" fill="#7AC751" fill-opacity="1.000000" fill-rule="evenodd"/>
	<path id="Shape" d="M11.85 31.18C11.31 31.18 10.88 31.61 10.88 32.14L10.88 34.08C10.88 34.61 11.31 35.04 11.85 35.04C12.38 35.04 12.81 34.61 12.81 34.08L12.81 32.14C12.81 31.61 12.38 31.18 11.85 31.18Z" fill="#7AC751" fill-opacity="1.000000" fill-rule="nonzero"/>
	<path id="Shape" d="M10.66 31.88Q10.63 32.01 10.63 32.14L10.63 34.08Q10.63 34.21 10.66 34.34Q10.68 34.45 10.72 34.55Q10.77 34.65 10.83 34.75Q10.9 34.85 10.98 34.94Q11.07 35.02 11.18 35.09Q11.27 35.15 11.37 35.2Q11.48 35.24 11.58 35.26Q11.71 35.29 11.85 35.29Q11.98 35.29 12.11 35.26Q12.22 35.24 12.32 35.2Q12.42 35.15 12.52 35.09Q12.62 35.02 12.71 34.94Q12.79 34.85 12.86 34.75Q12.92 34.65 12.97 34.55Q13.01 34.45 13.03 34.34Q13.06 34.21 13.06 34.08L13.06 32.14Q13.06 32.01 13.03 31.88Q13.01 31.77 12.97 31.67Q12.92 31.57 12.86 31.47Q12.79 31.37 12.71 31.28Q12.62 31.19 12.52 31.13Q12.42 31.07 12.32 31.02Q12.22 30.98 12.11 30.95Q11.98 30.93 11.85 30.93Q11.71 30.93 11.58 30.95Q11.48 30.98 11.37 31.02Q11.27 31.07 11.18 31.13Q11.07 31.19 10.98 31.28Q10.9 31.37 10.83 31.47Q10.77 31.57 10.72 31.67Q10.68 31.77 10.66 31.88ZM10.88 32.14C10.88 31.61 11.31 31.18 11.85 31.18C12.38 31.18 12.81 31.61 12.81 32.14L12.81 34.08C12.81 34.61 12.38 35.04 11.85 35.04C11.31 35.04 10.88 34.61 10.88 34.08L10.88 32.14Z" fill="#7AC751" fill-opacity="1.000000" fill-rule="evenodd"/>
	<path id="Shape" d="M11.85 36.98C11.31 36.98 10.88 37.41 10.88 37.94L10.88 53.41C10.88 53.94 11.31 54.38 11.85 54.38C12.38 54.38 12.81 53.94 12.81 53.41L12.81 37.94C12.81 37.41 12.38 36.98 11.85 36.98Z" fill="#7AC751" fill-opacity="1.000000" fill-rule="nonzero"/>
	<path id="Shape" d="M10.66 37.68Q10.63 37.81 10.63 37.94L10.63 53.41Q10.63 53.54 10.66 53.67Q10.68 53.78 10.72 53.88Q10.77 53.99 10.83 54.08Q10.9 54.18 10.98 54.27Q11.07 54.36 11.18 54.43Q11.27 54.49 11.37 54.53Q11.48 54.57 11.58 54.6Q11.71 54.63 11.85 54.63Q11.98 54.63 12.11 54.6Q12.22 54.57 12.32 54.53Q12.42 54.49 12.52 54.43Q12.62 54.36 12.71 54.27Q12.79 54.18 12.86 54.08Q12.92 53.99 12.97 53.88Q13.01 53.78 13.03 53.67Q13.06 53.54 13.06 53.41L13.06 37.94Q13.06 37.81 13.03 37.68Q13.01 37.57 12.97 37.47Q12.92 37.37 12.86 37.27Q12.79 37.17 12.71 37.08Q12.62 36.99 12.52 36.93Q12.42 36.87 12.32 36.82Q12.22 36.78 12.11 36.75Q11.98 36.73 11.85 36.73Q11.71 36.73 11.58 36.75Q11.48 36.78 11.37 36.82Q11.27 36.87 11.18 36.93Q11.07 36.99 10.98 37.08Q10.9 37.17 10.83 37.27Q10.77 37.37 10.72 37.47Q10.68 37.57 10.66 37.68ZM10.88 37.94C10.88 37.41 11.31 36.98 11.85 36.98C12.38 36.98 12.81 37.41 12.81 37.94L12.81 53.41C12.81 53.94 12.38 54.38 11.85 54.38C11.31 54.38 10.88 53.94 10.88 53.41L10.88 37.94Z" fill="#7AC751" fill-opacity="1.000000" fill-rule="evenodd"/>
	<path id="Shape" d="M46.65 35.04C47.18 35.04 47.61 34.61 47.61 34.08L47.61 32.14C47.61 31.61 47.18 31.18 46.65 31.18C46.11 31.18 45.68 31.61 45.68 32.14L45.68 34.08C45.68 34.61 46.11 35.04 46.65 35.04Z" fill="#7AC751" fill-opacity="1.000000" fill-rule="nonzero"/>
	<path id="Shape" d="M47.83 34.34Q47.86 34.21 47.86 34.08L47.86 32.14Q47.86 32.01 47.83 31.88Q47.81 31.77 47.77 31.67Q47.72 31.57 47.66 31.47Q47.59 31.37 47.51 31.28Q47.42 31.19 47.32 31.13Q47.22 31.07 47.12 31.02Q47.02 30.98 46.91 30.95Q46.78 30.93 46.65 30.93Q46.51 30.93 46.38 30.95Q46.28 30.98 46.17 31.02Q46.07 31.07 45.98 31.13Q45.87 31.19 45.79 31.28Q45.7 31.37 45.63 31.47Q45.57 31.57 45.52 31.67Q45.48 31.77 45.46 31.88Q45.43 32.01 45.43 32.14L45.43 34.08Q45.43 34.21 45.46 34.34Q45.48 34.45 45.52 34.55Q45.57 34.65 45.63 34.75Q45.7 34.85 45.79 34.94Q45.87 35.02 45.98 35.09Q46.07 35.15 46.17 35.2Q46.28 35.24 46.38 35.26Q46.51 35.29 46.65 35.29Q46.78 35.29 46.91 35.26Q47.02 35.24 47.12 35.2Q47.22 35.15 47.32 35.09Q47.42 35.02 47.51 34.94Q47.59 34.85 47.66 34.75Q47.72 34.65 47.77 34.55Q47.81 34.45 47.83 34.34ZM47.61 34.08C47.61 34.61 47.18 35.04 46.65 35.04C46.11 35.04 45.68 34.61 45.68 34.08L45.68 32.14C45.68 31.61 46.11 31.18 46.65 31.18C47.18 31.18 47.61 31.61 47.61 32.14L47.61 34.08Z" fill="#7AC751" fill-opacity="1.000000" fill-rule="evenodd"/>
	<path id="Shape" d="M46.65 54.38C47.18 54.38 47.61 53.94 47.61 53.41L47.61 37.94C47.61 37.41 47.18 36.98 46.65 36.98C46.11 36.98 45.68 37.41 45.68 37.94L45.68 53.41C45.68 53.94 46.11 54.38 46.65 54.38Z" fill="#7AC751" fill-opacity="1.000000" fill-rule="nonzero"/>
	<path id="Shape" d="M47.83 53.67Q47.86 53.54 47.86 53.41L47.86 37.94Q47.86 37.81 47.83 37.68Q47.81 37.57 47.77 37.47Q47.72 37.37 47.66 37.27Q47.59 37.17 47.51 37.08Q47.42 36.99 47.32 36.93Q47.22 36.87 47.12 36.82Q47.02 36.78 46.91 36.75Q46.78 36.73 46.65 36.73Q46.51 36.73 46.38 36.75Q46.28 36.78 46.17 36.82Q46.07 36.87 45.98 36.93Q45.87 36.99 45.79 37.08Q45.7 37.17 45.63 37.27Q45.57 37.37 45.52 37.47Q45.48 37.57 45.46 37.68Q45.43 37.81 45.43 37.94L45.43 53.41Q45.43 53.54 45.46 53.67Q45.48 53.78 45.52 53.88Q45.57 53.99 45.63 54.08Q45.7 54.18 45.79 54.27Q45.87 54.36 45.98 54.43Q46.07 54.49 46.17 54.53Q46.28 54.57 46.38 54.6Q46.51 54.63 46.65 54.63Q46.78 54.63 46.91 54.6Q47.02 54.57 47.12 54.53Q47.22 54.49 47.32 54.43Q47.42 54.36 47.51 54.27Q47.59 54.18 47.66 54.08Q47.72 53.99 47.77 53.88Q47.81 53.78 47.83 53.67ZM47.61 53.41C47.61 53.94 47.18 54.38 46.65 54.38C46.11 54.38 45.68 53.94 45.68 53.41L45.68 37.94C45.68 37.41 46.11 36.98 46.65 36.98C47.18 36.98 47.61 37.41 47.61 37.94L47.61 53.41Z" fill="#7AC751" fill-opacity="1.000000" fill-rule="evenodd"/>
</svg>
