<svg width="31.000000" height="24.000000" viewBox="0 0 31 24" fill="none" xmlns="http://www.w3.org/2000/svg" xmlns:xlink="http://www.w3.org/1999/xlink">
	<desc>
			Created with Pixso.
	</desc>
	<defs/>
	<path id="Vector" d="M21 6L18 6C18 4.4 17.36 2.88 16.24 1.75C15.11 0.63 13.59 0 12 0C10.4 0 8.88 0.63 7.75 1.75C6.63 2.88 6 4.4 6 6L3 6C2.2 6 1.44 6.31 0.87 6.87C0.31 7.44 0 8.2 0 9L0 19C0 20.32 0.52 21.59 1.46 22.53C2.4 23.47 3.67 23.99 5 24L19 24C20.32 23.99 21.59 23.47 22.53 22.53C23.47 21.59 23.99 20.32 24 19L24 9C24 8.2 23.68 7.44 23.12 6.87C22.55 6.31 21.79 6 21 6ZM12 2C13.06 2 14.07 2.42 14.82 3.17C15.57 3.92 16 4.93 16 6L8 6C8 4.93 8.42 3.92 9.17 3.17C9.92 2.42 10.93 2 12 2ZM22 19C22 19.79 21.68 20.55 21.12 21.12C20.55 21.68 19.79 22 19 22L5 22C4.2 22 3.44 21.68 2.87 21.12C2.31 20.55 2 19.79 2 19L2 9C2 8.73 2.1 8.48 2.29 8.29C2.48 8.1 2.73 8 3 8L6 8L6 10C6 10.26 6.1 10.51 6.29 10.7C6.48 10.89 6.73 11 7 11C7.26 11 7.51 10.89 7.7 10.7C7.89 10.51 8 10.26 8 10L8 8L16 8L16 10C16 10.26 16.1 10.51 16.29 10.7C16.48 10.89 16.73 11 17 11C17.26 11 17.51 10.89 17.7 10.7C17.89 10.51 18 10.26 18 10L18 8L21 8C21.26 8 21.51 8.1 21.7 8.29C21.89 8.48 22 8.73 22 9L22 19Z" fill="#555555" fill-opacity="1.000000" fill-rule="nonzero"/>
	<circle id="Ellipse 13" cx="25.000000" cy="6.000000" r="6.000000" fill="#7AC751" fill-opacity="1.000000"/>
	<path id="4" d="M25.73 8.98Q25.76 9 25.8 9L26.15 9Q26.2 9 26.23 8.98Q26.25 8.97 26.27 8.95Q26.29 8.93 26.3 8.91Q26.31 8.88 26.31 8.83L26.31 7.83L26.95 7.83Q27 7.83 27.03 7.81Q27.05 7.8 27.06 7.78Q27.08 7.76 27.09 7.74Q27.11 7.71 27.11 7.67L27.11 7.38Q27.11 7.33 27.09 7.3Q27.08 7.28 27.06 7.26Q27.05 7.25 27.04 7.25Q27 7.22 26.94 7.22L26.31 7.22L26.31 4.26Q26.31 4.21 26.29 4.18Q26.28 4.16 26.27 4.14Q26.25 4.12 26.23 4.11Q26.2 4.1 26.15 4.1L25.65 4.1Q25.52 4.1 25.44 4.16Q25.41 4.18 25.39 4.21L23.29 7.17Q23.25 7.24 23.23 7.3Q23.21 7.36 23.21 7.39L23.21 7.67Q23.21 7.71 23.23 7.75Q23.24 7.77 23.26 7.78Q23.27 7.8 23.29 7.81Q23.33 7.83 23.37 7.83L25.64 7.83L25.64 8.83Q25.64 8.88 25.66 8.91Q25.67 8.93 25.69 8.95Q25.7 8.97 25.73 8.98ZM25.65 7.23L23.96 7.23L25.65 4.83L25.65 7.23Z" fill="#FFFFFF" fill-opacity="1.000000" fill-rule="evenodd"/>
</svg>
