<svg width="10.527863" height="9.582031" viewBox="0 0 10.5279 9.58203" fill="none" xmlns="http://www.w3.org/2000/svg" xmlns:xlink="http://www.w3.org/1999/xlink">
	<defs/>
	<path id="star" d="M4.69 0.33L3.41 2.81L0.53 3.2C0.02 3.28 -0.19 3.88 0.19 4.23L2.27 6.15L1.77 8.88C1.69 9.37 2.23 9.74 2.69 9.51L5.26 8.22L7.83 9.51C8.29 9.74 8.83 9.37 8.74 8.88L8.25 6.15L10.33 4.23C10.71 3.88 10.5 3.28 9.98 3.2L7.11 2.81L5.82 0.33C5.59 -0.11 4.93 -0.12 4.69 0.33Z" fill="#FFFFFF" fill-opacity="1.000000" fill-rule="nonzero"/>
	<path id="star" d="M3.41 2.81L0.53 3.2C0.02 3.28 -0.19 3.88 0.19 4.23L2.27 6.15L1.77 8.88C1.69 9.37 2.23 9.74 2.69 9.51L5.26 8.22L7.83 9.51C8.29 9.74 8.83 9.37 8.74 8.88L8.25 6.15L10.33 4.23C10.71 3.88 10.5 3.28 9.98 3.2L7.11 2.81L5.82 0.33C5.59 -0.11 4.93 -0.12 4.69 0.33L3.41 2.81ZM1.95 4.22L3.57 3.99L4.19 3.91L5.26 1.85L6.33 3.91L8.57 4.22L6.95 5.72L7.35 7.93L5.26 6.88L3.16 7.93L3.56 5.72L1.95 4.22Z" fill="#7AC751" fill-opacity="1.000000" fill-rule="evenodd"/>
</svg>
