<svg width="58.000000" height="58.000000" viewBox="0 0 58 58" fill="none" xmlns="http://www.w3.org/2000/svg" xmlns:xlink="http://www.w3.org/1999/xlink">
	<desc>
			Created with Pixso.
	</desc>
	<defs>
		<clipPath id="clip2_268">
			<rect id="support 1" rx="0.000000" width="57.000000" height="57.000000" transform="translate(0.500000 0.500000)" fill="white" fill-opacity="0"/>
		</clipPath>
	</defs>
	<rect id="support 1" rx="0.000000" width="57.000000" height="57.000000" transform="translate(0.500000 0.500000)" fill="#FFFFFF" fill-opacity="0"/>
	<g clip-path="url(#clip2_268)">
		<path id="Vector" d="M49.96 23.97L49.81 23.97L49.81 20.45C49.81 9.15 40.65 0 29.35 0C18.06 0 8.9 9.15 8.9 20.45L8.9 23.97L8.04 23.97C4.88 23.97 2.44 26.77 2.44 30L2.44 38.97C2.36 42.1 4.83 44.71 7.96 44.79C7.99 44.79 8.01 44.79 8.04 44.79L13.35 44.79C14.1 44.75 14.68 44.11 14.65 43.36C14.64 43.33 14.64 43.31 14.64 43.28L14.64 25.69C14.64 24.83 14.14 23.97 13.35 23.97L11.77 23.97L11.77 20.45C11.77 10.74 19.64 2.87 29.35 2.87C39.07 2.87 46.94 10.74 46.94 20.45L46.94 23.97L45.36 23.97C44.57 23.97 44.07 24.83 44.07 25.69L44.07 43.28C43.99 44.03 44.53 44.7 45.28 44.78C45.31 44.78 45.33 44.79 45.36 44.79L47.01 44.79L46.87 45C44.72 47.86 41.34 49.54 37.75 49.52C36.97 45.68 33.22 43.2 29.37 43.98C26.08 44.65 23.71 47.53 23.68 50.89C23.72 54.82 26.93 58 30.86 57.99C32.81 57.96 34.67 57.16 36.03 55.77C36.95 54.83 37.55 53.62 37.75 52.32C42.24 52.34 46.47 50.24 49.17 46.65L50.53 44.64C53.62 44.43 55.55 42.49 55.55 39.69L55.55 30.72C55.55 27.63 53.26 23.97 49.96 23.97ZM11.77 41.92L8.04 41.92C6.49 41.88 5.27 40.59 5.3 39.05C5.31 39.02 5.31 39 5.31 38.97L5.31 30C5.31 28.35 6.46 26.84 8.04 26.84L11.77 26.84L11.77 41.92ZM33.95 53.76C33.15 54.62 32.04 55.12 30.86 55.12C28.53 55.09 26.63 53.22 26.55 50.89C26.55 48.55 28.45 46.65 30.79 46.65C33.13 46.65 35.02 48.55 35.03 50.89C35.03 50.89 35.03 50.89 35.03 50.89C35.09 51.95 34.69 53 33.95 53.76ZM52.68 39.69C52.68 41.63 50.82 41.92 49.96 41.92L46.94 41.92L46.94 26.84L49.96 26.84C51.54 26.84 52.68 29.07 52.68 30.72L52.68 39.69Z" fill="#7AC751" fill-opacity="1.000000" fill-rule="nonzero"/>
	</g>
</svg>
