<svg width="11.000000" height="9.000000" viewBox="0 0 11 9" fill="none" xmlns="http://www.w3.org/2000/svg" xmlns:xlink="http://www.w3.org/1999/xlink">
	<defs/>
	<path id="Vector" d="M10.43 2.98L7.92 0.2C7.8 0.07 7.63 0 7.46 0C7.29 0 7.12 0.07 7 0.2C6.88 0.34 6.81 0.52 6.81 0.71C6.81 0.9 6.88 1.08 7 1.22L9.3 3.76L0.64 3.76C0.47 3.76 0.31 3.83 0.18 3.97C0.06 4.1 0 4.28 0 4.47C0 4.66 0.06 4.85 0.18 4.98C0.31 5.11 0.47 5.19 0.64 5.19L9.34 5.19L7 7.77C6.94 7.84 6.9 7.92 6.86 8.01C6.83 8.09 6.81 8.19 6.81 8.28C6.81 8.37 6.83 8.47 6.86 8.55C6.9 8.64 6.94 8.72 7 8.79C7.12 8.92 7.29 9 7.46 9C7.63 9 7.8 8.92 7.92 8.79L10.43 6.01C10.79 5.61 11 5.06 11 4.49C10.99 3.93 10.79 3.38 10.43 2.98Z" fill="#757575" fill-opacity="1.000000" fill-rule="nonzero"/>
</svg>
