<svg width="58.000000" height="58.000000" viewBox="0 0 58 58" fill="none" xmlns="http://www.w3.org/2000/svg" xmlns:xlink="http://www.w3.org/1999/xlink">
	<desc>
			Created with Pixso.
	</desc>
	<defs>
		<clipPath id="clip2_212">
			<rect id="wallet 1" rx="0.000000" width="57.000000" height="57.000000" transform="translate(0.500000 0.500000)" fill="white" fill-opacity="0"/>
		</clipPath>
	</defs>
	<rect id="wallet 1" rx="0.000000" width="57.000000" height="57.000000" transform="translate(0.500000 0.500000)" fill="#FFFFFF" fill-opacity="0"/>
	<g clip-path="url(#clip2_212)">
		<path id="Vector" d="M55.36 29.24L55.36 21.09C55.36 18.32 53.21 16.07 50.51 15.86L42.94 2.63C42.23 1.41 41.1 0.54 39.75 0.17C38.4 -0.19 36.99 0 35.78 0.71L9.83 15.81L5.27 15.81C2.36 15.81 0 18.18 0 21.09L0 52.72C0 55.63 2.36 58 5.27 58L50.09 58C52.99 58 55.36 55.63 55.36 52.72L55.36 44.57C56.89 44.02 58 42.58 58 40.86L58 32.95C58 31.23 56.89 29.78 55.36 29.24ZM47.44 15.81L35.95 15.81L44.57 10.8L47.44 15.81ZM43.26 8.51L30.71 15.81L25.51 15.81L41.96 6.24L43.26 8.51ZM37.11 2.98C37.7 2.63 38.4 2.54 39.06 2.72C39.74 2.9 40.3 3.34 40.65 3.94L40.65 3.95L20.27 15.81L15.07 15.81L37.11 2.98ZM52.72 52.72C52.72 54.18 51.54 55.36 50.09 55.36L5.27 55.36C3.82 55.36 2.63 54.18 2.63 52.72L2.63 21.09C2.63 19.63 3.82 18.45 5.27 18.45L50.09 18.45C51.54 18.45 52.72 19.63 52.72 21.09L52.72 29L44.81 29C40.45 29 36.9 32.54 36.9 36.9C36.9 41.27 40.45 44.81 44.81 44.81L52.72 44.81L52.72 52.72ZM55.36 40.86C55.36 41.59 54.77 42.18 54.04 42.18L44.81 42.18C41.91 42.18 39.54 39.81 39.54 36.9C39.54 34 41.91 31.63 44.81 31.63L54.04 31.63C54.77 31.63 55.36 32.22 55.36 32.95L55.36 40.86Z" fill="#7AC751" fill-opacity="1.000000" fill-rule="nonzero"/>
		<path id="Vector" d="M44.81 34.27C43.36 34.27 42.18 35.45 42.18 36.9C42.18 38.36 43.36 39.54 44.81 39.54C46.27 39.54 47.45 38.36 47.45 36.9C47.45 35.45 46.27 34.27 44.81 34.27Z" fill="#7AC751" fill-opacity="1.000000" fill-rule="nonzero"/>
	</g>
</svg>
