<svg width="16.000000" height="16.000000" viewBox="0 0 16 16" fill="none" xmlns="http://www.w3.org/2000/svg" xmlns:xlink="http://www.w3.org/1999/xlink">
	<desc>
			Created with Pixso.
	</desc>
	<defs>
		<clipPath id="clip2_89">
			<rect id="zoom-2 1" rx="-0.500000" width="15.000000" height="15.000000" transform="translate(0.500000 0.500000)" fill="white" fill-opacity="0"/>
		</clipPath>
	</defs>
	<rect id="zoom-2 1" rx="-0.500000" width="15.000000" height="15.000000" transform="translate(0.500000 0.500000)" fill="#FFFFFF" fill-opacity="0"/>
	<g clip-path="url(#clip2_89)">
		<path id="Vector" d="M12.7 11.3C13.6 10.1 14.1 8.69 14.1 7.1C14.1 3.19 11 0 7.1 0C3.2 0 0 3.19 0 7.1C0 11 3.2 14.2 7.1 14.2C8.7 14.2 10.2 13.7 11.3 12.8L14.3 15.8C14.5 16 14.8 16.1 15 16.1C15.2 16.1 15.5 16 15.7 15.8C16.1 15.39 16.1 14.8 15.7 14.39L12.7 11.3ZM7.1 12.1C4.3 12.1 2 9.89 2 7.1C2 4.3 4.3 2 7.1 2C9.89 2 12.2 4.3 12.2 7.1C12.2 9.89 9.89 12.1 7.1 12.1Z" fill="#FFFFFF" fill-opacity="1.000000" fill-rule="nonzero"/>
	</g>
</svg>
